{"title":"Uncle Drew 2018 1080p WEB-DL DD 5.1 x264 [MW]","magnet":"magnet:?xt=urn:btih:ad99fed0d15cb19e89e43df35c2c8a00bbaa15ad&dn=Uncle+Drew+2018+1080p+WEB-DL+DD+5.1+x264+%5BMW%5D&tr=udp%3A%2F%2Ftracker.leechers-paradise.org%3A6969&tr=udp%3A%2F%2Fzer0day.ch%3A1337&tr=udp%3A%2F%2Fopen.demonii.com%3A1337&tr=udp%3A%2F%2Ftracker.coppersurfer.tk%3A6969&tr=udp%3A%2F%2Fexodus.desync.com%3A6969","uploader":"MFreaky","categoryP":"video","categoryS":"hd___movies","size":"2188944904","seeders":"0","leechers":"0","description":" <a href=\"https://pichub.site/image/DeJ2b\" rel=\"nofollow\" target=\"_NEW\">https://pichub.site/image/DeJ2b</a> <a href=\"\nhttps://pichub.site/image/DeawV\" rel=\"nofollow\" target=\"_NEW\">\nhttps://pichub.site/image/DeawV</a> <a href=\"\nhttps://pichub.site/image/DeIxT\" rel=\"nofollow\" target=\"_NEW\">\nhttps://pichub.site/image/DeIxT</a> <a href=\"\nhttps://pichub.site/image/DeOTN\" rel=\"nofollow\" target=\"_NEW\">\nhttps://pichub.site/image/DeOTN</a> <a href=\"\nhttps://pichub.site/image/DeSED\" rel=\"nofollow\" target=\"_NEW\">\nhttps://pichub.site/image/DeSED</a>\r\n\r\nIMDB <a href=\"\nhttps://www.imdb.com/title/tt7334528/\" rel=\"nofollow\" target=\"_NEW\">\nhttps://www.imdb.com/title/tt7334528/</a>\r\n\r\nVideo\r\nFormat                                   : AVC\r\nFormat/Info                              : Advanced Video Codec\r\nFormat profile                           : High@L4.1\r\nFormat settings                          : CABAC / 4 Ref Frames\r\nFormat settings, CABAC                   : Yes\r\nFormat settings, RefFrames               : 4 frames\r\nCodec ID                                 : V_MPEG4/ISO/AVC\r\nDuration                                 : 1 h 43 min\r\nBit rate                                 : 2 500 kb/s\r\nWidth                                    : 1 920 pixels\r\nHeight                                   : 1 036 pixels\r\nDisplay aspect ratio                     : 1.85:1\r\nFrame rate mode                          : Constant\r\nFrame rate                               : 23.976 (24000/1001) FPS\r\nColor space                              : YUV\r\nChroma subsampling                       : 4:2:0\r\nBit depth                                : 8 bits\r\nScan type                                : Progressive\r\nBits/(Pixel*Frame)                       : 0.052\r\nStream size                              : 1.76 GiB (86%)\r\nWriting library                          : x264 core 155 r2901 7d0ff22\r\n\r\nAudio\r\nFormat                                   : AC-3\r\nFormat/Info                              : Audio Coding 3\r\nCodec ID                                 : A_AC3\r\nDuration                                 : 1 h 43 min\r\nBit rate mode                            : Constant\r\nBit rate                                 : 384 kb/s\r\nChannel(s)                               : 6 channels\r\nChannel positions                        : Front: L C R, Side: L R, LFE\r\nSampling rate                            : 48.0 kHz\r\nFrame rate                               : 31.250 FPS (1536 SPF)\r\nBit depth                                : 16 bits\r\nCompression mode                         : Lossy\r\nStream size                              : 284 MiB (14%)\r\nLanguage                                 : English\r\nService kind                             : Complete Main","last_updated":"2018-09-12T12:11:39.398Z","parsed":{"xt":"urn:btih:ad99fed0d15cb19e89e43df35c2c8a00bbaa15ad","dn":"Uncle Drew 2018 1080p WEB-DL DD 5.1 x264 [MW]","tr":["udp://exodus.desync.com:6969","udp://open.demonii.com:1337","udp://tracker.coppersurfer.tk:6969","udp://tracker.leechers-paradise.org:6969","udp://zer0day.ch:1337"],"infoHash":"ad99fed0d15cb19e89e43df35c2c8a00bbaa15ad","infoHashBuffer":{"type":"Buffer","data":[173,153,254,208,209,92,177,158,137,228,61,243,92,44,138,0,187,170,21,173]},"name":"Uncle Drew 2018 1080p WEB-DL DD 5.1 x264 [MW]","announce":["udp://exodus.desync.com:6969","udp://open.demonii.com:1337","udp://tracker.coppersurfer.tk:6969","udp://tracker.leechers-paradise.org:6969","udp://zer0day.ch:1337"],"urlList":[]}}